<svg xmlns="http://www.w3.org/2000/svg" xmlns:xlink="http://www.w3.org/1999/xlink" width="48" zoomAndPan="magnify" viewBox="0 0 36 36.000001" height="48" preserveAspectRatio="xMidYMid meet" version="1.0"><defs><clipPath id="1b39076fb8"><path d="M 0.488281 0 L 35.511719 0 L 35.511719 35.027344 L 0.488281 35.027344 Z M 0.488281 0 " clip-rule="nonzero"/></clipPath><clipPath id="7593931452"><path d="M 18 0 C 8.328125 0 0.488281 7.839844 0.488281 17.511719 C 0.488281 27.1875 8.328125 35.027344 18 35.027344 C 27.671875 35.027344 35.511719 27.1875 35.511719 17.511719 C 35.511719 7.839844 27.671875 0 18 0 Z M 18 0 " clip-rule="nonzero"/></clipPath><clipPath id="42d2725392"><path d="M 3.585938 8.300781 L 31.398438 8.300781 L 31.398438 35.027344 L 3.585938 35.027344 Z M 3.585938 8.300781 " clip-rule="nonzero"/></clipPath><clipPath id="ddd080c9ca"><path d="M 28.226562 15.753906 L 34.898438 15.753906 L 34.898438 21.273438 L 28.226562 21.273438 Z M 28.226562 15.753906 " clip-rule="nonzero"/></clipPath></defs><g clip-path="url(#1b39076fb8)"><g clip-path="url(#7593931452)"><rect x="-3.6" width="43.2" fill="#ffd23f" y="-3.6" height="43.200001" fill-opacity="1"/></g></g><path fill="#ced6d4" d="M 21.816406 8.601562 C 21.816406 8.601562 24.992188 6.632812 26.417969 4.886719 C 27.839844 3.136719 26.746094 10.132812 25.210938 10.351562 C 23.679688 10.570312 21.816406 8.601562 21.816406 8.601562 " fill-opacity="1" fill-rule="nonzero"/><g clip-path="url(#42d2725392)"><path fill="#d8e5e3" d="M 30.535156 26.335938 C 32.355469 26.363281 30.6875 22.867188 30.6875 22.867188 C 31.070312 22.839844 31.125 21.992188 31.125 21.992188 C 31.097656 21.171875 29.511719 20.515625 29.511719 20.515625 C 29.511719 20.515625 31.480469 19.53125 30.988281 15.597656 C 30.496094 11.664062 25.566406 10.105469 22.941406 9.039062 C 20.3125 7.972656 13.332031 7.480469 8.898438 11.742188 C 6.253906 14.285156 4.542969 21.835938 3.59375 27.523438 C 6.722656 32.226562 11.722656 35.273438 17.355469 35.273438 C 18.984375 35.273438 20.5625 35.015625 22.054688 34.542969 C 24.015625 31.429688 26.554688 29.207031 26.554688 29.207031 C 29.511719 29.371094 29.703125 26.453125 29.703125 26.453125 L 30.535156 26.335938 " fill-opacity="1" fill-rule="nonzero"/></g><path fill="#ffffff" d="M 14.152344 8.546875 C 14.152344 8.546875 17.929688 6.25 19.574219 7.234375 C 21.214844 8.21875 21.214844 8.21875 21.214844 8.21875 C 21.214844 8.21875 23.515625 4.9375 25.652344 6.742188 C 27.785156 8.546875 25.652344 9.695312 25.652344 9.695312 C 25.652344 9.695312 28.769531 8.054688 29.921875 10.515625 C 31.070312 12.972656 28.441406 12.152344 28.441406 12.152344 C 28.441406 12.152344 32.546875 12.808594 31.5625 14.449219 C 30.578125 16.089844 26.964844 13.628906 26.964844 13.628906 C 26.964844 13.628906 27.949219 15.597656 25.980469 15.761719 C 24.007812 15.925781 22.859375 13.464844 22.859375 13.464844 C 22.859375 13.464844 23.679688 16.253906 19.246094 15.761719 C 14.808594 15.269531 12.183594 12.972656 14.152344 8.546875 " fill-opacity="1" fill-rule="nonzero"/><path fill="#a18582" d="M 30.242188 24.578125 C 30.242188 24.578125 30.167969 23.902344 30.441406 23.441406 C 30.714844 22.976562 31.234375 22.59375 31.125 21.992188 C 31.125 21.992188 31.097656 22.675781 30.414062 22.484375 C 29.730469 22.292969 28.238281 21.71875 26.492188 22.550781 C 26.492188 22.550781 28.824219 22.183594 29.484375 23.167969 C 30.140625 24.148438 30.242188 24.578125 30.242188 24.578125 " fill-opacity="1" fill-rule="nonzero"/><path fill="#261d1a" d="M 30.082031 26.144531 L 30.03125 26.089844 C 30.367188 25.769531 30.207031 24.59375 30.207031 24.582031 L 30.28125 24.570312 C 30.289062 24.621094 30.449219 25.796875 30.082031 26.144531 " fill-opacity="1" fill-rule="nonzero"/><path fill="#261d1a" d="M 26.492188 22.550781 C 26.492188 22.550781 29.230469 21.742188 29.734375 23.160156 C 30.242188 24.578125 30.242188 24.578125 30.242188 24.578125 C 30.242188 24.578125 29.128906 22.753906 26.492188 22.550781 " fill-opacity="1" fill-rule="nonzero"/><path fill="#261d1a" d="M 30.613281 26.308594 C 29.742188 26.527344 30.175781 25.800781 30.175781 25.800781 C 29.410156 26.820312 28.058594 26.5625 28.058594 26.5625 C 25.757812 26.34375 24.410156 24.851562 24.410156 24.851562 C 24.410156 24.851562 26.855469 27.53125 29.703125 26.453125 C 29.703125 26.453125 30.160156 26.570312 30.613281 26.308594 " fill-opacity="1" fill-rule="nonzero"/><path fill="#d8e5e3" d="M 10.320312 14.394531 C 10.320312 14.394531 7.910156 12.644531 9.226562 8.382812 C 10.539062 4.121094 12.730469 3.792969 12.730469 3.792969 C 12.730469 3.792969 15.027344 10.023438 13.933594 11.769531 C 12.839844 13.519531 10.320312 14.394531 10.320312 14.394531 " fill-opacity="1" fill-rule="nonzero"/><path fill="#a18582" d="M 12.402344 4.449219 C 12.402344 4.449219 8.457031 8.492188 10.976562 13.300781 C 10.976562 13.300781 12.949219 11.664062 13.167969 9.257812 C 13.386719 6.851562 12.402344 4.449219 12.402344 4.449219 " fill-opacity="1" fill-rule="nonzero"/><path fill="#ff452e" d="M 22.535156 16.617188 C 21.671875 14.539062 17.597656 15.265625 18.167969 18.25 C 18.8125 21.636719 22.527344 22.738281 22.527344 22.738281 L 21.964844 22.546875 L 22.539062 22.738281 C 22.539062 22.738281 26.253906 21.636719 26.898438 18.25 C 27.46875 15.265625 23.394531 14.539062 22.535156 16.617188 " fill-opacity="1" fill-rule="nonzero"/><g clip-path="url(#ddd080c9ca)"><path fill="#ff452e" d="M 31.566406 16.652344 C 30.917969 15.085938 27.851562 15.636719 28.277344 17.882812 C 28.765625 20.433594 31.5625 21.261719 31.5625 21.261719 L 31.160156 21.117188 L 31.570312 21.261719 C 31.570312 21.261719 34.367188 20.433594 34.855469 17.882812 C 35.285156 15.636719 32.214844 15.085938 31.566406 16.652344 " fill-opacity="1" fill-rule="nonzero"/></g><path fill="#ff452e" d="M 26.976562 17.550781 L 26.789062 17.417969 C 26.804688 17.394531 27.210938 16.835938 27.71875 16.859375 C 28.003906 16.875 28.253906 17.066406 28.460938 17.425781 L 28.261719 17.539062 C 28.09375 17.25 27.910156 17.097656 27.707031 17.085938 C 27.390625 17.070312 27.070312 17.414062 26.976562 17.550781 " fill-opacity="1" fill-rule="nonzero"/></svg>